<mxfile host="app.diagrams.net" modified="2024-01-02T03:33:05.074Z" agent="Mozilla/5.0 (Windows NT 10.0; Win64; x64; rv:121.0) Gecko/20100101 Firefox/121.0" version="22.1.15" etag="yRPdkPSB3n25IxdlVOBF" type="github">
  <diagram name="第 1 页" id="D97KRyVLys0J3oUpjL1X">
    <mxGraphModel>
      <root>
        <mxCell id="0" />
        <mxCell id="1" parent="0" />
      </root>
    </mxGraphModel>
  </diagram>
</mxfile>
